<?xml version="1.0" encoding="utf-8"?>
<!-- Generator: Adobe Illustrator 28.3.0, SVG Export Plug-In . SVG Version: 6.00 Build 0)  -->
<svg version="1.1" id="Capa_1" xmlns="http://www.w3.org/2000/svg" xmlns:xlink="http://www.w3.org/1999/xlink" x="0px" y="0px"
	 viewBox="0 0 100 100" style="enable-background:new 0 0 100 100;" xml:space="preserve">
<style type="text/css">
	.st0{fill:#FFFFFF;}
</style>
<g>
	<path class="st0" d="M29.9,49.7v-6.4h4.2c1.3,0,1.9,0.6,1.9,1.9c0,0.5-0.2,0.9-0.6,1.2c0.6,0.3,0.8,0.7,0.8,1.4
		c0,1.3-0.6,1.9-1.9,1.9H29.9z M31.2,45.9h2.9c0.4,0,0.6-0.2,0.6-0.6v-0.2c0-0.4-0.2-0.6-0.6-0.6h-2.9V45.9z M31.2,47.1v1.5h3.2
		c0.4,0,0.6-0.2,0.6-0.6v-0.2c0-0.4-0.2-0.6-0.6-0.6H31.2z"/>
	<path class="st0" d="M38,49.7v-6.4h4.6c1.3,0,1.9,0.6,1.9,1.9c0,1.1-0.6,1.7-1.7,1.8c0.1,0.1,0.2,0.2,0.2,0.3l1.4,2.3h-1.4
		l-1.6-2.6h-2.2v2.6H38z M39.3,45.9h3.3c0.4,0,0.6-0.2,0.6-0.6v-0.2c0-0.4-0.2-0.6-0.6-0.6h-3.3V45.9z"/>
	<path class="st0" d="M45.7,46.5c0-1,0.3-1.8,0.9-2.4c0.6-0.6,1.4-0.9,2.4-0.9c1,0,1.8,0.3,2.4,0.9c0.6,0.6,0.9,1.4,0.9,2.4
		c0,1-0.3,1.8-0.9,2.4c-0.6,0.6-1.4,0.9-2.4,0.9c-1,0-1.8-0.3-2.4-0.9C46,48.2,45.7,47.5,45.7,46.5z M47,46.5c0,0.6,0.2,1.1,0.6,1.5
		c0.4,0.4,0.8,0.6,1.4,0.6c0.6,0,1.1-0.2,1.4-0.6c0.4-0.4,0.6-0.9,0.6-1.5c0-0.6-0.2-1.1-0.6-1.5c-0.4-0.4-0.8-0.6-1.4-0.6
		c-0.6,0-1.1,0.2-1.4,0.6C47.2,45.4,47,45.9,47,46.5z"/>
	<path class="st0" d="M55.2,43.3v3.3c0,0.6,0.2,1.1,0.5,1.4c0.3,0.4,0.8,0.6,1.3,0.6c0.5,0,0.9-0.2,1.3-0.6c0.3-0.4,0.5-0.8,0.5-1.4
		v-3.3h1.3v3.3c0,0.9-0.3,1.7-0.9,2.3c-0.6,0.6-1.3,0.9-2.2,0.9c-0.9,0-1.6-0.3-2.2-0.9c-0.6-0.6-0.9-1.4-0.9-2.3v-3.3H55.2z"/>
	<path class="st0" d="M62,49.7v-6.4h1.3v3.1l3.4-3.1h1.8l-3,2.7l3,3.7H67l-2.3-2.9L63.3,48v1.7H62z"/>
	<path class="st0" d="M69.9,49.7v-6.4h6.3v1.2h-5v1.5h3.7v1.2h-3.7v1.5h5v1.2H69.9z"/>
	<path class="st0" d="M77.9,49.7v-6.4h4.6c1.3,0,1.9,0.6,1.9,1.9c0,1.1-0.6,1.7-1.7,1.8c0.1,0.1,0.2,0.2,0.2,0.3l1.4,2.3H83
		l-1.6-2.6h-2.2v2.6H77.9z M79.2,45.9h3.3c0.4,0,0.6-0.2,0.6-0.6v-0.2c0-0.4-0.2-0.6-0.6-0.6h-3.3V45.9z"/>
	<path class="st0" d="M85.9,48.7l4.3-4.2H86v-1.2h6v1l-4.3,4.2h4.4v1.2h-6.3V48.7z"/>
</g>
<g>
	<polygon class="st0" points="26.5,30.4 17,39.9 12.2,39.9 12.2,35.2 17,35.2 21.8,30.4 	"/>
</g>
<g>
	<rect x="21.8" y="30.3" class="st0" width="4.8" height="14.4"/>
</g>
<g>
	<polygon class="st0" points="7.4,54.2 17,44.6 21.8,44.6 21.8,49.4 17,49.4 12.2,54.2 	"/>
</g>
<g>
	<rect x="7.4" y="39.8" class="st0" width="4.8" height="14.4"/>
</g>
<g>
	<g>
		<path class="st0" d="M21,65.2l-0.4-0.9h-0.2l-0.1,0.9L20,66.5h-1v-0.1l1-3.7V55h1v5.5h0.2l0.6-0.9c0.7-0.5,1.5-0.8,2.3-0.8
			c2.3,0,4.1,1.8,4.1,4c0,2.2-1.7,4-4.1,4C22.8,66.7,21.7,66.1,21,65.2z M24.1,65.8c1.8,0,3.1-1.4,3.1-3.1c0-1.7-1.3-3.1-3.1-3.1
			c-1.7,0-3.1,1.4-3.1,3.1C21,64.4,22.3,65.8,24.1,65.8z"/>
		<path class="st0" d="M29.7,58.9h3.6v0.9h-2.6v6.7h-1V58.9z"/>
		<path class="st0" d="M33.6,62.7c0-2.2,1.7-4,4-4c2.3,0,4,1.8,4,4c0,2.2-1.7,4-4,4C35.3,66.7,33.6,64.9,33.6,62.7z M37.6,65.8
			c1.7,0,3-1.4,3-3.1c0-1.7-1.2-3.1-3-3.1c-1.8,0-3,1.4-3,3.1C34.6,64.4,35.8,65.8,37.6,65.8z"/>
		<path class="st0" d="M68.2,63.1h-1.8v3.4l-1,0V55h1l0,7.2h1.7l2.5-3.3h1.1V59l-2.1,2.8l-0.7,0.7v0.2l0.7,0.7l2.2,3.1v0.1h-1.2
			L68.2,63.1z"/>
		<path class="st0" d="M72.3,62.7c0-2.2,1.5-4,3.8-4c2.3,0,3.8,1.8,3.8,4c0,0.2,0,0.3,0,0.5h-6.6c0.2,1.5,1.2,2.6,2.9,2.6
			c1.4,0,2.3-0.8,2.8-1.9l0.9,0.4c-0.6,1.4-1.8,2.3-3.6,2.3C73.8,66.7,72.3,64.9,72.3,62.7z M78.9,62.3c-0.2-1.5-1.2-2.7-2.8-2.7
			c-1.6,0-2.6,1.2-2.8,2.7H78.9z"/>
		<path class="st0" d="M81.6,58.9h3.6v0.9h-2.6v6.7h-1V58.9z"/>
		<path class="st0" d="M86.3,65.6l4.2-5l0.8-0.6v-0.2h-4.9l0-0.9l6,0v0.9l-4.1,5l-0.8,0.6v0.2l5.2,0v0.9h-6.2L86.3,65.6z"/>
	</g>
	<g>
		<polygon class="st0" points="61.7,58.9 61.7,65.6 45,65.6 45,58.9 44,58.9 44,66.5 44,66.5 44,66.6 61.7,66.6 62.7,66.6 
			62.7,65.6 62.7,58.9 		"/>
	</g>
</g>
</svg>
