<?xml version="1.0" encoding="utf-8"?>
<!-- Generator: Adobe Illustrator 28.3.0, SVG Export Plug-In . SVG Version: 6.00 Build 0)  -->
<svg version="1.1" id="Capa_1" xmlns="http://www.w3.org/2000/svg" xmlns:xlink="http://www.w3.org/1999/xlink" x="0px" y="0px"
	 viewBox="0 0 100 100" style="enable-background:new 0 0 100 100;" xml:space="preserve">
<style type="text/css">
	.st0{fill:#FFFFFF;}
</style>
<g>
	<g>
		<g>
			<path class="st0" d="M63.7,66.6c0.1-0.1,0.2-0.1,0.3-0.1h2.5c0.1,0,0.2,0,0.3,0.1l0.1,0.1c0.1,0.1,0.1,0.2,0.1,0.3v1.8h-0.5V67
				h-2.6v1.9h-0.5V67C63.5,66.9,63.5,66.8,63.7,66.6L63.7,66.6z M65,68.8v-1.4h0.4v1.4H65z"/>
			<path class="st0" d="M67.1,68.9h-0.6v-1.9H64v1.9h-0.6V67c0-0.1,0-0.3,0.2-0.4l0.1-0.1c0.1-0.1,0.2-0.2,0.4-0.2h2.5
				c0.1,0,0.3,0,0.4,0.2l0.1,0.1c0.1,0.1,0.2,0.2,0.2,0.4V68.9z M66.6,68.7h0.3V67c0-0.1,0-0.2-0.1-0.2l-0.1-0.1
				c-0.1-0.1-0.1-0.1-0.2-0.1H64c-0.1,0-0.2,0-0.2,0.1l-0.1,0.1c-0.1,0.1-0.1,0.1-0.1,0.2v1.8h0.3v-1.9h2.8V68.7z M65.5,68.9h-0.6
				v-1.6h0.6V68.9z M65.1,68.7h0.3v-1.2h-0.3V68.7z"/>
		</g>
		<g>
			<path class="st0" d="M68,66.5h2c0.1,0,0.2,0,0.3,0.1l0.1,0.1c0.1,0.1,0.1,0.2,0.1,0.3v1.8H70v-0.9h-1.3l-0.3-0.4H70V67h-2.1v1.9
				h-0.5V67c0-0.1,0-0.2,0.1-0.3l0.1-0.1C67.7,66.5,67.8,66.5,68,66.5z"/>
			<path class="st0" d="M70.6,68.9H70V68h-1.3l-0.5-0.6H70v-0.3H68v1.9h-0.6V67c0-0.1,0-0.3,0.2-0.4l0.1-0.1
				c0.1-0.1,0.2-0.2,0.4-0.2h2c0.1,0,0.3,0,0.4,0.2l0.1,0.1c0.1,0.1,0.2,0.2,0.2,0.4V68.9z M70.1,68.7h0.3V67c0-0.1,0-0.2-0.1-0.2
				l-0.1-0.1c-0.1-0.1-0.1-0.1-0.2-0.1h-2c-0.1,0-0.2,0-0.2,0.1l-0.1,0.1c-0.1,0.1-0.1,0.1-0.1,0.2v1.8h0.3v-1.9h2.3v0.7h-1.6
				l0.2,0.3h1.4V68.7z"/>
		</g>
		<g>
			<path class="st0" d="M71.5,66.5H74V67h-2.6v1.4h2.1v-0.9H74v0.9c0,0.1,0,0.2-0.1,0.3l-0.1,0.1c-0.1,0.1-0.2,0.1-0.3,0.1h-2
				c-0.1,0-0.2,0-0.3-0.1l-0.1-0.1C71,68.6,71,68.5,71,68.3V67c0-0.1,0-0.2,0.1-0.3l0.1-0.1C71.3,66.5,71.4,66.5,71.5,66.5z"/>
			<path class="st0" d="M71.5,68.9c-0.1,0-0.3-0.1-0.4-0.2l-0.1-0.1c-0.1-0.1-0.2-0.2-0.2-0.4V67c0-0.1,0-0.3,0.2-0.4l0.1-0.1
				c0.1-0.1,0.2-0.2,0.4-0.2h2.6v0.6h-2.6v1.2h1.9v-0.9h0.6v1c0,0.1,0,0.3-0.2,0.4l-0.1,0.1c-0.1,0.1-0.2,0.2-0.4,0.2L71.5,68.9
				C71.5,68.9,71.5,68.9,71.5,68.9z M71.5,66.6c-0.1,0-0.2,0-0.2,0.1l-0.1,0.1c-0.1,0.1-0.1,0.1-0.1,0.2v1.4c0,0.1,0,0.2,0.1,0.2
				l0.1,0.1c0.1,0.1,0.1,0.1,0.2,0.1h2c0.1,0,0.2,0,0.2-0.1l0.1-0.1c0.1-0.1,0.1-0.1,0.1-0.2v-0.8h-0.3v0.9h-2.3v-1.6h2.6v-0.3
				L71.5,66.6C71.5,66.6,71.5,66.6,71.5,66.6z"/>
		</g>
		<g>
			<path class="st0" d="M75,66.5h2c0.1,0,0.2,0,0.3,0.1l0.1,0.1c0.1,0.1,0.1,0.2,0.1,0.3v1.8h-0.5v-0.9h-1.3l-0.3-0.4h1.7V67H75v1.9
				h-0.5V67c0-0.1,0-0.2,0.1-0.3l0.1-0.1C74.8,66.5,74.9,66.5,75,66.5z"/>
			<path class="st0" d="M77.6,68.9H77V68h-1.3l-0.5-0.6H77v-0.3h-1.9v1.9h-0.6V67c0-0.1,0-0.3,0.2-0.4l0.1-0.1
				c0.1-0.1,0.2-0.2,0.4-0.2h2c0,0,0,0,0,0c0.1,0,0.3,0.1,0.4,0.2l0.1,0.1c0.1,0.1,0.2,0.2,0.2,0.4V68.9z M77.2,68.7h0.3V67
				c0-0.1,0-0.2-0.1-0.2l-0.1-0.1c-0.1-0.1-0.1-0.1-0.2-0.1h-2c-0.1,0-0.2,0-0.2,0.1l-0.1,0.1c-0.1,0.1-0.1,0.1-0.1,0.2v1.8h0.3
				v-1.9h2.3v0.7h-1.6l0.2,0.3h1.4V68.7z"/>
		</g>
		<g>
			<path class="st0" d="M78,66.5h2.5c0.1,0,0.2,0,0.3,0.1l0.1,0.1C81,66.8,81,66.9,81,67v0.2c0,0.1,0,0.2-0.1,0.3
				c-0.1,0.1-0.1,0.1-0.2,0.1l-2.2,0.5v0.3H81v0.5h-2.5c-0.1,0-0.2,0-0.3-0.1l-0.1-0.1C78,68.6,78,68.5,78,68.3v-0.2
				c0-0.1,0-0.2,0.1-0.3c0.1-0.1,0.1-0.1,0.2-0.1l2.2-0.5V67H78V66.5z"/>
			<path class="st0" d="M78.5,68.9c-0.1,0-0.3-0.1-0.4-0.2L78,68.7c-0.1-0.1-0.2-0.2-0.2-0.4v-0.2c0-0.1,0-0.2,0.1-0.3
				c0.1-0.1,0.2-0.2,0.3-0.2l2.2-0.5v-0.1h-2.6v-0.6h2.6c0.1,0,0.3,0,0.4,0.2l0.1,0.1c0.1,0.1,0.2,0.2,0.2,0.4v0.2
				c0,0.1,0,0.2-0.1,0.3c-0.1,0.1-0.2,0.2-0.3,0.2l-2.2,0.5v0.1h2.6v0.6L78.5,68.9C78.5,68.9,78.5,68.9,78.5,68.9z M78.1,66.9h2.6
				v0.4l-2.3,0.5c-0.1,0-0.1,0.1-0.2,0.1c0,0.1-0.1,0.1-0.1,0.2v0.2c0,0.1,0,0.2,0.1,0.2l0.1,0.1c0.1,0.1,0.1,0.1,0.2,0.1h2.4v-0.3
				h-2.6v-0.4l2.3-0.5c0.1,0,0.1-0.1,0.2-0.1c0-0.1,0.1-0.1,0.1-0.2V67c0-0.1,0-0.2-0.1-0.2l-0.1-0.1c-0.1-0.1-0.1-0.1-0.2-0.1h-2.4
				V66.9z"/>
		</g>
		<g>
			<path class="st0" d="M81.9,68.8h-0.5v-2.3h0.5V68.8z"/>
			<path class="st0" d="M82,68.9h-0.6v-2.5H82V68.9z M81.6,68.7h0.3v-2.1h-0.3V68.7z"/>
		</g>
		<g>
			<path class="st0" d="M82.9,66.5h2c0.1,0,0.2,0,0.3,0.1l0.1,0.1c0.1,0.1,0.1,0.2,0.1,0.3v1.8H85V67h-2.1v1.9h-0.5V67
				c0-0.1,0-0.2,0.1-0.3l0.1-0.1C82.7,66.5,82.8,66.5,82.9,66.5z"/>
			<path class="st0" d="M85.5,68.9h-0.6v-1.9H83v1.9h-0.6V67c0-0.1,0-0.3,0.2-0.4l0.1-0.1c0.1-0.1,0.2-0.2,0.4-0.2h2
				c0.1,0,0.3,0,0.4,0.2l0.1,0.1c0.1,0.1,0.2,0.2,0.2,0.4V68.9z M85.1,68.7h0.3V67c0-0.1,0-0.2-0.1-0.2l-0.1-0.1
				c-0.1-0.1-0.1-0.1-0.2-0.1h-2c-0.1,0-0.2,0-0.2,0.1l-0.1,0.1c-0.1,0.1-0.1,0.1-0.1,0.2v1.8h0.3v-1.9h2.3V68.7z"/>
		</g>
		<g>
			<path class="st0" d="M88.8,66.5V67h-3v-0.5H88.8z M85.8,68.4h3v0.5h-3V68.4z M86.3,67.5h2.6v0.4h-2.2L86.3,67.5z"/>
			<path class="st0" d="M88.9,68.9h-3.2v-0.6h3.2V68.9z M85.9,68.7h2.8v-0.3h-2.8V68.7z M88.9,68h-2.4l-0.5-0.6h2.9V68z M86.7,67.8
				h2.1v-0.3h-2.3L86.7,67.8z M88.9,67.1h-3.2v-0.6h3.2V67.1z M85.9,66.9h2.8v-0.3h-2.8V66.9z"/>
		</g>
	</g>
	<g>
		<path class="st0" d="M49.2,35.5l0.8-4.5H24.8c-1.2,0-2.2,0.4-3.2,1.2L20.8,33c-1,0.8-1.6,1.8-1.8,3l-2.4,13.4
			c-0.2,1.2,0,2.2,0.7,3l0.6,0.7c0.7,0.8,1.6,1.3,2.8,1.2h25.2l0.8-4.5H21.1l2.5-14.3H49.2z"/>
		<path class="st0" d="M82.4,33l-0.6-0.7c-0.7-0.8-1.6-1.3-2.8-1.2H53.9l-0.8,4.5l-0.9,4.9l-2.4,13.9h25.2c1.2,0,2.2-0.4,3.2-1.2
			l0.8-0.7c1-0.8,1.6-1.8,1.8-3l0.5-2.7c0.2-1.2,0-2.2-0.7-3l-0.8-1l1.2-1c1-0.8,1.6-1.8,1.8-3l0.5-2.7C83.3,34.8,83.1,33.8,82.4,33
			z M76.2,49.8H55.1l0.9-4.9H77L76.2,49.8z M77.8,40.5h-21l1-4.9h20.8L77.8,40.5z"/>
	</g>
	<g>
		<path class="st0" d="M19.5,57.9l0.2-1.3h-7.3c-0.3,0-0.6,0.1-0.9,0.4l-0.2,0.2c-0.3,0.2-0.5,0.5-0.5,0.9L10,62
			c-0.1,0.3,0,0.6,0.2,0.9l0.2,0.2c0.2,0.2,0.5,0.4,0.8,0.4h7.3l0.2-1.3h-7.4l0.7-4.1H19.5z"/>
		<path class="st0" d="M28.9,57c-0.2-0.2-0.5-0.4-0.8-0.4h-5.9c-0.3,0-0.6,0.1-0.9,0.4l-0.2,0.2c-0.3,0.2-0.5,0.5-0.5,0.9l-0.9,5.3
			H21l1-5.4H28l-0.3,1.4H23l0.7,1.3h3.9l-0.5,2.7h1.3l0.9-5.3c0.1-0.3,0-0.6-0.2-0.9L28.9,57z"/>
		<path class="st0" d="M39.2,57c-0.2-0.2-0.5-0.4-0.8-0.4h-7.3l-1.2,6.7h1.3l1-5.4h6.1L37.9,60h-2.8c0.4,0.9,1.1,2,1.9,3.4h1.6
			l-1.2-2.1h0.1c0.3,0,0.6-0.1,0.9-0.4l0.2-0.2c0.3-0.2,0.5-0.5,0.5-0.9l0.3-1.8c0.1-0.3,0-0.6-0.2-0.9L39.2,57z"/>
		<path class="st0" d="M41.4,57l-0.2,0.2c-0.3,0.2-0.5,0.5-0.5,0.9l-0.1,0.7c-0.1,0.3,0,0.5,0.1,0.8c0.1,0.2,0.4,0.4,0.6,0.4
			l6.2,1.4l-0.1,0.8H40l-0.2,1.3H47c0.3,0,0.6-0.1,0.9-0.4l0.2-0.2c0.3-0.2,0.5-0.5,0.5-0.9l0.1-0.7c0.1-0.3,0-0.5-0.1-0.8
			c-0.1-0.2-0.3-0.4-0.6-0.4l-6.2-1.4l0.1-0.8h7.4l0.2-1.3h-7.3C42,56.6,41.7,56.8,41.4,57z"/>
		<path class="st0" d="M59,57c-0.2-0.2-0.5-0.4-0.8-0.4h-7.3l-0.2,1.2h0l-0.3,1.5l0,0l-0.7,4H57c0.3,0,0.6-0.1,0.9-0.4l0.2-0.2
			c0.3-0.2,0.5-0.5,0.5-0.9l0.1-0.8c0.1-0.3,0-0.6-0.2-0.9L58.4,60l0.3-0.3c0.3-0.2,0.5-0.5,0.5-0.9l0.1-0.8c0.1-0.3,0-0.6-0.2-0.9
			L59,57z M57.4,62.1h-6.1l0.2-1.4l0,0.1l0-0.1h6.1L57.4,62.1z M57.8,59.4h-6l0.3-1.4h6L57.8,59.4z"/>
		<path class="st0" d="M69.1,57c-0.2-0.2-0.5-0.4-0.8-0.4h-5.9c-0.3,0-0.6,0.1-0.9,0.4l-0.2,0.2c-0.3,0.2-0.5,0.5-0.5,0.9L60,62
			c-0.1,0.3,0,0.6,0.2,0.9l0.2,0.2c0.2,0.2,0.5,0.4,0.8,0.4h5.9c0.3,0,0.6-0.1,0.9-0.4l0.2-0.2c0.3-0.2,0.5-0.5,0.5-0.9l0.7-3.9
			c0.1-0.3,0-0.6-0.2-0.9L69.1,57z M67.4,62.1h-6.1l0.7-4.1h6.1L67.4,62.1z"/>
		<path class="st0" d="M79.2,57c-0.2-0.2-0.5-0.4-0.8-0.4h-5.9c-0.3,0-0.6,0.1-0.9,0.4l-0.2,0.2c-0.3,0.2-0.5,0.5-0.5,0.9L70.2,62
			c-0.1,0.3,0,0.6,0.2,0.9l0.2,0.2c0.2,0.2,0.5,0.4,0.8,0.4h5.9c0.3,0,0.6-0.1,0.9-0.4l0.2-0.2c0.3-0.2,0.5-0.5,0.5-0.9l0.7-3.9
			c0.1-0.3,0-0.6-0.2-0.9L79.2,57z M77.6,62.1h-6.1l0.7-4.1h6.1L77.6,62.1z"/>
		<polygon class="st0" points="90,56.6 88.4,56.6 86.2,58.9 85.9,59.4 83.4,59.4 84.1,60.7 85.6,60.7 85.9,61.1 87.2,63.4 
			88.8,63.4 86.9,60 		"/>
		<polygon class="st0" points="80.1,63.4 81.4,63.4 82.6,56.6 81.3,56.6 		"/>
	</g>
</g>
</svg>
