<?xml version="1.0" encoding="utf-8"?>
<!-- Generator: Adobe Illustrator 28.3.0, SVG Export Plug-In . SVG Version: 6.00 Build 0)  -->
<svg version="1.1" id="Capa_1" xmlns="http://www.w3.org/2000/svg" xmlns:xlink="http://www.w3.org/1999/xlink" x="0px" y="0px"
	 viewBox="0 0 100 100" style="enable-background:new 0 0 100 100;" xml:space="preserve">
<style type="text/css">
	.st0{fill:#FFFFFF;}
</style>
<g>
	<g>
		<path class="st0" d="M32.5,83.8H18.1l3.4-19c0.8-4.6,0-6.8-0.9-9.2c-0.8-2.3-1.7-4.6-0.9-9.3c0.8-4.8,2.6-7.1,4.2-9.5
			c1.7-2.3,3.2-4.5,4-9L31.3,9h14.2c1.6,0,3.1,0.3,4.6,0.9c5.4,2,8.3,7.4,7.2,13.5L56.5,28c-0.8,4.6-2.5,6.9-4.1,9.2
			c-1.6,2.3-3.3,4.6-4.1,9.2c-0.8,4.4,0,6.6,0.9,8.9c0.8,2.3,1.7,4.7,0.9,9.5l-0.8,4.7c-1.1,6-5.8,11.4-11.8,13.4
			C35.7,83.5,34,83.8,32.5,83.8z M18.8,83.2h13.6c1.5,0,3.1-0.3,4.7-0.8c5.8-1.9,10.4-7.1,11.4-12.9l0.8-4.7c0.8-4.6,0-6.8-0.9-9.2
			c-0.8-2.3-1.7-4.6-0.9-9.3c0.8-4.8,2.6-7.1,4.2-9.5c1.7-2.3,3.2-4.5,4-9l0.8-4.7c1-5.7-1.7-10.9-6.8-12.8
			c-1.4-0.5-2.9-0.8-4.4-0.8H31.8L28.6,28c-0.8,4.6-2.5,6.9-4.1,9.2c-1.6,2.3-3.3,4.6-4.1,9.2c-0.8,4.4,0,6.6,0.9,8.9
			c0.8,2.3,1.7,4.7,0.9,9.5L18.8,83.2z M34.1,74.5h-5l1.7-9.7c0.8-4.6,0-6.8-0.9-9.2c-0.8-2.3-1.7-4.6-0.9-9.3
			c0.8-4.8,2.6-7.1,4.2-9.5c1.7-2.3,3.2-4.5,4-9l1.7-9.6h4.9c1.3,0,2.5,0.5,3.3,1.5c0.8,1,1.1,2.2,0.9,3.6L47.2,28
			c-0.8,4.6-2.5,6.9-4.1,9.2c-1.6,2.3-3.3,4.6-4.1,9.2c-0.8,4.4,0,6.6,0.9,8.9c0.8,2.3,1.7,4.7,0.9,9.5l-0.8,4.7
			C39.4,72.3,36.8,74.5,34.1,74.5z M29.8,73.9h4.3c2.4,0,4.8-2,5.2-4.4l0.8-4.7c0.8-4.6,0-6.8-0.9-9.2c-0.8-2.3-1.7-4.6-0.9-9.3
			c0.8-4.8,2.6-7.1,4.2-9.5c1.7-2.3,3.2-4.5,4-9l0.8-4.7c0.2-1.2-0.1-2.2-0.8-3.1C46,19.4,45,19,43.9,19h-4.4L37.9,28
			c-0.8,4.6-2.5,6.9-4.1,9.2c-1.6,2.3-3.3,4.6-4.1,9.2c-0.8,4.4,0,6.6,0.9,8.9c0.8,2.3,1.7,4.7,0.9,9.5L29.8,73.9z"/>
	</g>
	<g>
		<path class="st0" d="M60,35.3h9.2l0,0.1c-0.8,4.6-2.5,6.9-4,9.1h-9.3c-1.7,2.3-3.3,4.7-4.1,9.3c-1.6,9.1,3.4,9.1,1.7,18.4
			l-1.6,9.3h18.6L68.8,91h-28l1.5-8.7l1.8-10c1.6-9.3-3.3-9.3-1.7-18.4c1.6-9.3,6.6-9.3,8.2-18.4l2.1-11.9l1.2-6.8h28l-1.6,9.3H61.6
			L60,35.3z"/>
	</g>
	<g>
		<path class="st0" d="M77.2,91h-5.4l0.9-5.4h5.4L77.2,91z"/>
	</g>
</g>
</svg>
