<?xml version="1.0" encoding="utf-8"?>
<!-- Generator: Adobe Illustrator 28.3.0, SVG Export Plug-In . SVG Version: 6.00 Build 0)  -->
<svg version="1.1" id="Capa_1" xmlns="http://www.w3.org/2000/svg" xmlns:xlink="http://www.w3.org/1999/xlink" x="0px" y="0px"
	 viewBox="0 0 100 100" style="enable-background:new 0 0 100 100;" xml:space="preserve">
<style type="text/css">
	.st0{fill:#FFFFFF;}
	.st1{fill-rule:evenodd;clip-rule:evenodd;fill:#FFFFFF;}
</style>
<g>
	<g>
		<g>
			<path class="st0" d="M27.7,32h-8.9v8.4v0.4v0v2.9v6H9.9v-6v-2.9v0v-0.4V32l8.9-8.9h8.9V32z M72.3,40.9h-8.9v8.9h-8.9v-8.9v0V32
				h-8.9v-8.6h-8.9l-8.9,8.9v8.9h8.9v-8.9h8.9v8.6v0v8.9l8.9,8.9h8.9v-8.9l8.9,8.9h8.9v-8.9h-8.9V40.9z M81.2,32v8.9v0v8.9h8.9v-8.9
				v0V32H81.2z"/>
		</g>
	</g>
	<g>
		<path class="st1" d="M18.9,65c-1.2,0-2.2,0.5-2.8,1.5c-0.6-0.9-1.6-1.5-2.8-1.5c-1.9,0-3.4,1.1-3.4,3.7v4.6h1.9v-4.6
			c0-1.3,0.7-1.9,1.6-1.9c0.9,0,1.6,0.6,1.6,1.9v4.6h1.9v-4.6c0-1.3,0.7-1.9,1.6-1.9c0.9,0,1.6,0.5,1.6,1.9v4.6h1.9v-4.6
			C22.3,66.1,20.8,65,18.9,65z"/>
		<rect x="24.5" y="65.2" class="st1" width="1.9" height="8.1"/>
		<rect x="28.9" y="61.6" class="st1" width="1.9" height="11.6"/>
		<polygon class="st1" points="40.9,65.2 38.4,65.2 35.2,68.7 35.2,61.6 33.3,61.6 33.3,73.3 35.2,73.3 35.2,69.6 38.5,73.3 
			41.1,73.3 37.1,69.1 		"/>
		<path class="st1" d="M48.4,69.3c0,1.5-0.9,2.3-2,2.3c-1.2,0-2-0.7-2-2.3v-4.1h-1.9v4.1c0,2.9,1.8,4.1,3.6,4.1
			c1.1,0,1.9-0.5,2.4-1.4v1c0,1.6-0.8,2.2-2.1,2.2c-1,0-1.6-0.3-1.9-1.1h-1.9c0.5,1.9,2,2.8,3.9,2.8c2.2,0,4-1.1,4-3.9v-7.8h-1.9
			V69.3z"/>
		<path class="st1" d="M67.6,69.8c0,1.3-0.7,1.9-1.6,1.9c-0.9,0-1.6-0.6-1.6-1.9v-4.6h-1.9v4.6c0,1.3-0.7,1.9-1.6,1.9
			c-0.9,0-1.6-0.5-1.6-1.9v-4.6h-1.9v4.6c0,2.5,1.5,3.7,3.4,3.7c1.2,0,2.2-0.5,2.8-1.5c0.6,0.9,1.6,1.5,2.8,1.5
			c1.9,0,3.4-1.1,3.4-3.7v-4.6h-1.9V69.8z"/>
		<path class="st1" d="M75.5,65c-2.6,0-4.3,1.8-4.3,4.3c0,2.5,1.8,4.3,4.3,4.3c1.9,0,3.4-1,4-2.5h-2.1c-0.4,0.5-1,0.8-1.9,0.8
			c-1.1,0-2-0.6-2.3-1.8h6.6v-0.7C79.8,66.8,78.1,65,75.5,65z M73.3,68.3c0.3-1.1,1.2-1.6,2.3-1.6c1.1,0,1.9,0.5,2.3,1.6H73.3z"/>
		<path class="st1" d="M86.1,65c-1.2,0-2.1,0.5-2.7,1.4v-4.7h-1.9v7.5c0,2.6,1.8,4.3,4.3,4.3c2.6,0,4.4-1.8,4.4-4.3
			C90.1,66.4,88,65,86.1,65z M85.7,71.6c-1.4,0-2.4-1-2.4-2.4c0-1.4,0.9-2.4,2.4-2.4c1.4,0,2.4,1,2.4,2.4
			C88.1,70.6,87.2,71.6,85.7,71.6z"/>
		<path class="st1" d="M26.7,62.6l-0.6-0.1c-0.1,0-0.2-0.1-0.2-0.2l-0.1-0.6c-0.1-0.3-0.5-0.3-0.6,0L25,62.2c0,0.1-0.1,0.2-0.2,0.2
			l-0.6,0.2c-0.3,0.1-0.3,0.5,0,0.6l0.6,0.2c0.1,0,0.2,0.1,0.2,0.2l0.2,0.6c0.1,0.3,0.5,0.3,0.6,0l0.2-0.6c0-0.1,0.1-0.2,0.2-0.2
			l0.6-0.2C27,63.1,27,62.6,26.7,62.6z"/>
	</g>
</g>
</svg>
