<?xml version="1.0" encoding="utf-8"?>
<!-- Generator: Adobe Illustrator 28.3.0, SVG Export Plug-In . SVG Version: 6.00 Build 0)  -->
<svg version="1.1" id="Capa_1" xmlns="http://www.w3.org/2000/svg" xmlns:xlink="http://www.w3.org/1999/xlink" x="0px" y="0px"
	 viewBox="0 0 100 100" style="enable-background:new 0 0 100 100;" xml:space="preserve">
<style type="text/css">
	.st0{fill:#FFFFFF;}
	.st1{opacity:0.58;fill:#FFFFFF;}
</style>
<g>
	<path class="st0" d="M25.1,50.5V48h1.2l0.3,1.4l-0.4,0c0.3-0.3,0.6-0.6,0.9-0.9c0.3-0.2,0.7-0.4,1-0.5c0.4-0.1,0.8-0.2,1.2-0.2
		c0.6,0,1,0.1,1.3,0.3c0.3,0.2,0.6,0.4,0.7,0.8c0.2,0.3,0.3,0.7,0.3,1.1c0,0.4,0.1,0.8,0.1,1.2V56h-1.6v-5.1c0-0.6-0.1-1-0.4-1.1
		c-0.3-0.2-0.6-0.3-0.9-0.3c-0.5,0-1,0.2-1.4,0.5c-0.3,0.2-0.5,0.4-0.7,0.6c-0.1,0.1-0.3,0.1-0.3-0.1v-0.3h0.3l-0.1,0.4L25.1,50.5z
		 M35.3,56v-5.1c0-0.6-0.1-1-0.4-1.1c-0.3-0.2-0.6-0.3-0.9-0.3c-0.5,0-1,0.2-1.4,0.5c-0.5,0.3-0.8,0.7-1,1.1l-0.2-1.6
		c0.3-0.3,0.6-0.6,0.9-0.9c0.3-0.2,0.7-0.4,1-0.5c0.4-0.1,0.8-0.2,1.2-0.2c0.6,0,1,0.1,1.3,0.3c0.3,0.2,0.6,0.4,0.7,0.8
		c0.2,0.3,0.3,0.7,0.3,1.1c0,0.4,0.1,0.8,0.1,1.2V56H35.3z"/>
	<path class="st0" d="M42.5,56.2c-0.8,0-1.5-0.2-2.1-0.5c-0.6-0.3-1.1-0.8-1.4-1.5c-0.3-0.6-0.5-1.3-0.5-2.2c0-0.8,0.2-1.6,0.5-2.2
		c0.3-0.6,0.8-1.1,1.4-1.5c0.6-0.3,1.3-0.5,2.1-0.5c0.8,0,1.5,0.2,2.1,0.5c0.6,0.3,1.1,0.8,1.4,1.5s0.5,1.4,0.5,2.2
		c0,0.8-0.2,1.6-0.5,2.2s-0.8,1.1-1.4,1.5C44,56,43.3,56.2,42.5,56.2z M42.5,54.6c0.7,0,1.3-0.2,1.8-0.7c0.4-0.5,0.7-1.1,0.7-1.9
		c0-0.8-0.2-1.4-0.7-1.9c-0.4-0.5-1-0.7-1.8-0.7c-0.7,0-1.3,0.2-1.7,0.7c-0.4,0.5-0.7,1.1-0.7,1.9c0,0.8,0.2,1.4,0.7,1.9
		C41.2,54.3,41.8,54.6,42.5,54.6z"/>
	<path class="st0" d="M52.6,56l-2-3.2h0.6l-0.3,0.4L49.9,52l0.3-0.4v0.8l-3-4.4h2l2,3.2h-0.6l2-3.2h2l-3,4.4v-0.8l3,4.4H52.6z"/>
	<path class="st0" d="M63.7,56.2c-0.8,0-1.5-0.2-2.1-0.5c-0.6-0.4-1.1-0.8-1.4-1.5c-0.3-0.6-0.5-1.3-0.5-2.2c0-0.8,0.2-1.5,0.5-2.2
		c0.3-0.6,0.8-1.1,1.4-1.5c0.6-0.4,1.3-0.5,2.1-0.5c0.8,0,1.5,0.2,2.1,0.6c0.6,0.4,1.1,1,1.4,1.7l-1.6,0.7c-0.2-0.5-0.4-0.8-0.8-1
		c-0.3-0.2-0.7-0.4-1.2-0.4c-0.7,0-1.2,0.2-1.6,0.7c-0.4,0.5-0.7,1.1-0.7,1.9c0,0.8,0.2,1.5,0.7,1.9c0.4,0.5,1,0.7,1.6,0.7
		c0.4,0,0.8-0.1,1.2-0.4c0.3-0.2,0.6-0.6,0.8-1l1.6,0.7c-0.3,0.7-0.8,1.3-1.4,1.7C65.2,55.9,64.5,56.2,63.7,56.2z"/>
	<path class="st0" d="M69.8,48l0.4,2.2V56h-1.6v-8H69.8z M69.9,50.8l-0.4-0.2v-1.2l0.1-0.2c0.1-0.2,0.3-0.4,0.5-0.6
		c0.2-0.2,0.5-0.4,0.8-0.6c0.3-0.2,0.6-0.2,1-0.2c0.2,0,0.3,0,0.5,0c0.1,0,0.3,0.1,0.3,0.1v1.5h-0.5c-0.7,0-1.3,0.1-1.6,0.3
		C70.3,50,70.1,50.4,69.9,50.8z"/>
	<path class="st0" d="M77,56.2c-0.8,0-1.5-0.2-2-0.5c-0.6-0.3-1-0.8-1.4-1.5s-0.5-1.3-0.5-2.2c0-0.8,0.2-1.6,0.5-2.2
		s0.8-1.1,1.4-1.5c0.6-0.3,1.3-0.5,2-0.5c0.8,0,1.5,0.2,2.1,0.5c0.6,0.3,1,0.8,1.4,1.5s0.5,1.4,0.5,2.2c0,0.1,0,0.2,0,0.2
		c0,0.1,0,0.2,0,0.2h-6.3v-1.4h5.1l-0.5,1c0-0.8-0.2-1.5-0.6-2c-0.4-0.5-0.9-0.8-1.7-0.8c-0.7,0-1.2,0.2-1.6,0.6
		c-0.4,0.4-0.6,1-0.6,1.7v0.9c0,0.7,0.2,1.3,0.6,1.7c0.4,0.4,0.9,0.6,1.6,0.6c0.6,0,1.1-0.1,1.5-0.4c0.3-0.3,0.7-0.6,0.9-1l1.2,0.8
		c-0.4,0.7-0.8,1.2-1.4,1.5C78.6,56,77.9,56.2,77,56.2z"/>
	<path class="st0" d="M85.7,56.2c-0.7,0-1.4-0.2-1.9-0.5c-0.6-0.3-1-0.8-1.3-1.5C82.2,53.5,82,52.8,82,52c0-0.8,0.2-1.6,0.5-2.2
		c0.3-0.6,0.7-1.1,1.3-1.5c0.6-0.3,1.2-0.5,1.9-0.5c0.7,0,1.3,0.2,1.9,0.5c0.5,0.3,1,0.8,1.3,1.5c0.3,0.6,0.5,1.3,0.5,2.2
		c0,0.8-0.2,1.6-0.5,2.2c-0.3,0.6-0.7,1.1-1.3,1.5C87,56,86.4,56.2,85.7,56.2z M85.9,54.7c0.7,0,1.2-0.3,1.6-0.8
		c0.4-0.5,0.6-1.2,0.6-2c0-0.8-0.2-1.5-0.6-2c-0.4-0.5-1-0.8-1.6-0.8c-0.7,0-1.2,0.3-1.6,0.8c-0.4,0.5-0.6,1.2-0.6,2
		c0,0.8,0.2,1.5,0.6,2C84.7,54.5,85.3,54.7,85.9,54.7z M88.5,56l-0.4-1.6h0.2v-4.6h-0.2v-5h1.6V56H88.5z"/>
	<path class="st0" d="M91.6,45.5c0-0.3,0.1-0.6,0.3-0.8c0.2-0.2,0.5-0.3,0.8-0.3c0.3,0,0.6,0.1,0.8,0.3c0.2,0.2,0.3,0.5,0.3,0.8
		c0,0.3-0.1,0.6-0.3,0.8c-0.2,0.2-0.5,0.3-0.8,0.3c-0.3,0-0.6-0.1-0.8-0.3C91.7,46.1,91.6,45.8,91.6,45.5z M93.5,56h-1.6v-8h1.6V56z
		"/>
	<polygon class="st0" points="46.9,56 48.6,54.3 50.4,54.3 48.6,56 	"/>
	<polygon class="st0" points="25,56 26.7,54.3 28.4,54.3 26.7,56 	"/>
	<polygon class="st0" points="6.2,58.1 14.4,50 22.5,50 14.4,58.1 	"/>
	<polygon class="st1" points="6.2,50 14.4,41.9 22.5,41.9 14.4,50 	"/>
</g>
</svg>
