<?xml version="1.0" encoding="utf-8"?>
<!-- Generator: Adobe Illustrator 28.3.0, SVG Export Plug-In . SVG Version: 6.00 Build 0)  -->
<svg version="1.1" id="Capa_1" xmlns="http://www.w3.org/2000/svg" xmlns:xlink="http://www.w3.org/1999/xlink" x="0px" y="0px"
	 viewBox="0 0 100 100" style="enable-background:new 0 0 100 100;" xml:space="preserve">
<style type="text/css">
	.st0{fill:#FFFFFF;}
</style>
<g>
	<g>
		<polygon class="st0" points="14.2,41.8 24.7,41.8 24.7,52.4 19.5,52.4 19.5,47.1 14.1,47.1 		"/>
	</g>
	<g>
		<rect x="8.9" y="47.1" class="st0" width="5.3" height="5.3"/>
	</g>
	<g>
		<rect x="8" y="53.5" class="st0" width="5.3" height="5.3"/>
	</g>
	<g>
		<g>
			<path class="st0" d="M30,41.8h2.8c3.4,0,4.9,0.9,4.9,3.7c0,2.8-1.5,3.7-4.9,3.7h-1.2v3.1H30V41.8z M33.1,47.7c2,0,3-0.5,3-2.2
				c0-1.7-1-2.2-3-2.2h-1.4v4.4H33.1z"/>
		</g>
		<g>
			<path class="st0" d="M39.3,44h1.6v1.4c0.3-0.9,1.2-1.7,2.9-1.5l-0.2,1.6c-1.9-0.3-2.7,0.7-2.7,2.7v4.1h-1.6V44z"/>
		</g>
		<g>
			<path class="st0" d="M44.1,48.2c0-3,2.1-4.3,4.2-4.3c2.1,0,4.2,1.3,4.2,4.3c0,3-2.1,4.3-4.2,4.3C46.1,52.5,44.1,51.2,44.1,48.2z
				 M50.8,48.2c0-1.8-1-2.9-2.6-2.9c-1.5,0-2.6,1.1-2.6,2.9c0,1.8,1,2.9,2.6,2.9C49.8,51.1,50.8,50,50.8,48.2z"/>
		</g>
		<g>
			<path class="st0" d="M56.5,52.3L52.9,44h1.8l2.7,6.5L60,44h1.8l-4.8,11h-1.8L56.5,52.3z"/>
		</g>
		<g>
			<path class="st0" d="M62.2,48.2c0-2.6,1.7-4.3,4.2-4.3c2.6,0,4.2,1.9,4,4.7h-6.6c0.1,1.6,1.1,2.5,2.7,2.5c1.2,0,1.9-0.4,2.3-1.2
				l1.5,0.2c-0.7,1.5-2,2.3-3.9,2.3C63.9,52.5,62.2,50.8,62.2,48.2z M69,47.3c-0.1-1.3-1-2.2-2.5-2.2c-1.4,0-2.4,0.7-2.6,2.2H69z"/>
		</g>
		<g>
			<path class="st0" d="M77.7,52.3l-3.8-4.1v4.1h-1.6v-11h1.6v6.5l3.7-3.8h2.2l-4.1,4l4.3,4.3H77.7z"/>
		</g>
		<g>
			<path class="st0" d="M81.3,49v-3.7h-1.2V44h1.2v-1.5l1.6-0.3V44h2.5v1.3H83v3.5c0,1.7,0.5,2.3,1.7,2.3c0.2,0,0.3,0,0.7-0.1
				l0.2,1.3c-0.3,0.1-0.8,0.1-1.1,0.1C82.3,52.5,81.3,51.6,81.3,49z"/>
		</g>
		<g>
			<rect x="86.8" y="44" class="st0" width="1.6" height="8.3"/>
		</g>
		<g>
			<path class="st0" d="M90.3,41.3H92v11h-1.6V41.3z"/>
		</g>
	</g>
	<g>
		<rect x="86.7" y="41.3" class="st0" width="1.8" height="1.8"/>
	</g>
	<g>
		<path class="st0" d="M80.7,55.2v0.4h0c-0.2-0.2-0.4-0.3-0.8-0.3c-0.4,0-0.6,0.2-0.6,0.5c0,0.2,0.2,0.3,0.6,0.3
			c0.7,0,0.9,0.3,0.9,0.7c0,0.5-0.4,0.8-1,0.8c-0.4,0-0.7-0.1-1-0.3v-0.4h0c0.2,0.2,0.5,0.4,0.9,0.4c0.4,0,0.6-0.2,0.6-0.4
			c0-0.2-0.2-0.4-0.7-0.4c-0.7,0-0.9-0.2-0.9-0.7c0-0.5,0.4-0.8,1-0.8C80.2,55,80.5,55.1,80.7,55.2z"/>
		<path class="st0" d="M82.7,57.5c-0.1,0.1-0.3,0.1-0.4,0.1c-0.5,0-0.8-0.3-0.8-0.8v-1.4H81V55h0.5l0.1-0.7h0.3V55h0.8v0.3h-0.8v1.4
			c0,0.3,0.2,0.5,0.5,0.5c0.1,0,0.3,0,0.4-0.1h0V57.5z"/>
		<path class="st0" d="M85.2,57.6l0-0.5h0c-0.2,0.3-0.5,0.5-0.9,0.5c-0.7,0-1.1-0.4-1.1-1.1V55h0.4v1.4c0,0.5,0.3,0.8,0.8,0.8
			c0.5,0,0.8-0.4,0.8-1V55h0.4v2.5H85.2z"/>
		<path class="st0" d="M88.4,57.6l0-0.5h0c-0.2,0.3-0.6,0.5-1,0.5c-0.7,0-1.3-0.5-1.3-1.3c0-0.8,0.5-1.3,1.3-1.3
			c0.4,0,0.8,0.2,1,0.5h0v-1.7h0.4v3.8H88.4z M88.4,56.3c0-0.6-0.4-1-1-1s-1,0.4-1,1c0,0.6,0.4,1,1,1S88.4,56.9,88.4,56.3z"/>
		<path class="st0" d="M89.9,54.2c0,0.1-0.1,0.2-0.2,0.2c-0.1,0-0.2-0.1-0.2-0.2c0-0.1,0.1-0.2,0.2-0.2C89.8,54,89.9,54.1,89.9,54.2
			z M89.5,55h0.4v2.5h-0.4V55z"/>
		<path class="st0" d="M93.1,56.3c0,0.8-0.6,1.3-1.3,1.3c-0.8,0-1.3-0.5-1.3-1.3c0-0.8,0.6-1.3,1.3-1.3C92.5,55,93.1,55.5,93.1,56.3
			z M90.8,56.3c0,0.6,0.4,1,1,1c0.6,0,1-0.4,1-1c0-0.6-0.4-1-1-1C91.2,55.3,90.8,55.7,90.8,56.3z"/>
	</g>
	<g>
		<rect x="14.2" y="52.4" class="st0" width="5.2" height="5.2"/>
	</g>
</g>
</svg>
