<?xml version="1.0" encoding="utf-8"?>
<!-- Generator: Adobe Illustrator 28.3.0, SVG Export Plug-In . SVG Version: 6.00 Build 0)  -->
<svg version="1.1" id="Capa_1" xmlns="http://www.w3.org/2000/svg" xmlns:xlink="http://www.w3.org/1999/xlink" x="0px" y="0px"
	 viewBox="0 0 250 50" style="enable-background:new 0 0 250 50;" xml:space="preserve">
<style type="text/css">
	.st0{fill:#5B5B5B;}
</style>
<g>
	<path class="st0" d="M225.1,46h-201C12.5,46,3,36.5,3,24.8S12.5,3.7,24.1,3.7h201c11.7,0,21.2,9.5,21.2,21.2S236.8,46,225.1,46z
		 M24.1,4.4c-11.2,0-20.4,9.2-20.4,20.4c0,11.2,9.2,20.4,20.4,20.4h201c11.2,0,20.4-9.2,20.4-20.4c0-11.2-9.2-20.4-20.4-20.4H24.1z"
		/>
</g>
<g>
	<path class="st0" d="M31.6,36.8l-4.3-24.2h2.3l3.9,22.9h0.4l5-22.9H43l5,22.9h0.4l3.9-22.9h2.3l-4.3,24.2h-4.1l-5-22.9h-0.4
		l-5,22.9H31.6z"/>
	<path class="st0" d="M59,36.8V12.6h14.7v2H61.2v9.1h11.5v2H61.2v9.1h12.6v2H59z"/>
	<path class="st0" d="M77.3,36.8v-2h3.5V14.6h-3.5v-2h12c1.4,0,2.6,0.3,3.7,0.8c1.1,0.5,1.9,1.2,2.5,2.1c0.6,0.9,0.9,2,0.9,3.2v0.3
		c0,1.1-0.2,2.1-0.7,2.8c-0.4,0.7-1,1.3-1.6,1.7c-0.6,0.4-1.2,0.7-1.8,0.9v0.4c0.6,0.1,1.2,0.4,1.9,0.8c0.6,0.4,1.2,1,1.6,1.7
		c0.4,0.7,0.6,1.7,0.6,2.8v0.3c0,1.3-0.3,2.4-1,3.4c-0.6,0.9-1.5,1.7-2.6,2.2c-1.1,0.5-2.3,0.7-3.7,0.7H77.3z M83,23.6h6.2
		c1.6,0,2.8-0.4,3.8-1.2c0.9-0.8,1.4-1.8,1.4-3.1v-0.3c0-1.3-0.5-2.3-1.4-3.1c-0.9-0.8-2.2-1.2-3.8-1.2H83V23.6z M83,34.8h6
		c1.7,0,3-0.4,3.9-1.2c0.9-0.8,1.3-1.9,1.3-3.3V30c0-1.4-0.4-2.4-1.3-3.3C92,26,90.7,25.6,89,25.6h-6V34.8z"/>
	<path class="st0" d="M109.1,36.8v-2h3.5V14.6h-3.5v-2h9.2c3.2,0,5.6,0.8,7.4,2.4c1.8,1.6,2.6,4.1,2.6,7.5v4.5
		c0,3.4-0.9,5.9-2.6,7.5c-1.8,1.6-4.2,2.4-7.4,2.4H109.1z M114.8,34.8h3.5c2.5,0,4.5-0.6,5.8-1.8c1.3-1.2,2-3.2,2-5.9v-4.7
		c0-2.7-0.7-4.7-2-5.9c-1.3-1.2-3.3-1.8-5.8-1.8h-3.5V34.8z"/>
	<path class="st0" d="M133.3,36.8V12.6H148v2h-12.4v9.1H147v2h-11.5v9.1h12.6v2H133.3z"/>
	<path class="st0" d="M160.9,37.3c-1.7,0-3.3-0.3-4.6-0.9c-1.4-0.6-2.4-1.5-3.2-2.8c-0.8-1.3-1.2-2.9-1.2-4.8v-0.7h2.2v0.7
		c0,2.2,0.6,3.9,1.9,5c1.3,1.1,2.9,1.6,4.9,1.6c2,0,3.6-0.5,4.6-1.4c1.1-0.9,1.6-2.1,1.6-3.6c0-1-0.2-1.7-0.7-2.3s-1.1-1.1-2-1.4
		s-1.8-0.7-2.9-1l-2.2-0.6c-1.3-0.3-2.5-0.8-3.5-1.3c-1-0.5-1.9-1.2-2.5-2c-0.6-0.8-0.9-1.9-0.9-3.2s0.3-2.5,1-3.4
		c0.7-1,1.6-1.7,2.8-2.2c1.2-0.5,2.6-0.8,4.2-0.8c1.6,0,3,0.3,4.3,0.8c1.3,0.6,2.3,1.4,3,2.4c0.8,1.1,1.1,2.4,1.1,4V21h-2.2v-1.6
		c0-1.3-0.3-2.3-0.8-3.1c-0.6-0.8-1.3-1.4-2.3-1.7c-0.9-0.4-2-0.6-3.2-0.6c-1.7,0-3.1,0.4-4.2,1.2c-1.1,0.8-1.6,1.9-1.6,3.3
		c0,1,0.2,1.7,0.7,2.3c0.5,0.6,1.1,1,1.9,1.4c0.8,0.3,1.8,0.7,2.9,0.9l2.2,0.6c1.3,0.3,2.4,0.7,3.5,1.2c1.1,0.5,1.9,1.2,2.6,2
		c0.6,0.9,1,2,1,3.4c0,1.4-0.4,2.6-1.1,3.7c-0.7,1-1.7,1.8-3,2.4C164.1,37,162.6,37.3,160.9,37.3z"/>
	<path class="st0" d="M174.3,36.8V12.6h2.2v24.2H174.3z"/>
	<path class="st0" d="M190.9,37.3c-1.8,0-3.5-0.4-4.8-1.1c-1.4-0.8-2.5-1.9-3.2-3.3c-0.8-1.5-1.1-3.3-1.1-5.4v-5.5
		c0-3.2,0.8-5.7,2.5-7.4c1.7-1.7,4-2.5,6.8-2.5c2.8,0,4.9,0.8,6.4,2.4c1.4,1.6,2.2,3.7,2.2,6.3v0.2h-2.2v-0.2c0-1.3-0.2-2.4-0.7-3.4
		s-1.1-1.8-2.1-2.3c-0.9-0.6-2.1-0.8-3.6-0.8c-2.2,0-4,0.7-5.2,2c-1.3,1.4-1.9,3.3-1.9,5.8v5.6c0,2.5,0.6,4.4,1.9,5.8
		c1.3,1.4,3,2,5.2,2c2.2,0,3.8-0.6,4.8-1.9c1-1.3,1.6-3,1.6-5.1v-0.7h-8v-1.9h10.1v11.2h-2v-2.7h-0.4c-0.3,0.6-0.7,1.1-1.2,1.6
		c-0.5,0.5-1.2,0.9-2,1.2C193.2,37.1,192.2,37.3,190.9,37.3z"/>
	<path class="st0" d="M205.3,36.8V12.6h4.4l9.9,22.9h0.4V12.6h2.2v24.2h-4.4l-9.9-23h-0.4v23H205.3z"/>
</g>
</svg>
