<?xml version="1.0" encoding="utf-8"?>
<!-- Generator: Adobe Illustrator 28.3.0, SVG Export Plug-In . SVG Version: 6.00 Build 0)  -->
<svg version="1.1" xmlns="http://www.w3.org/2000/svg" xmlns:xlink="http://www.w3.org/1999/xlink" x="0px" y="0px"
	 viewBox="0 0 100 50" style="enable-background:new 0 0 100 50;" xml:space="preserve">
<style type="text/css">
	.st0{display:none;}
	.st1{display:inline;}
	.st2{fill:#FFFFFF;}
</style>
<g id="Capa_2" class="st0">
	<rect x="-0.1" y="0" class="st1" width="100.3" height="50.4"/>
</g>
<g id="Capa_1">
	<g>
		<path class="st2" d="M77,47.1H22.5c-11.9,0-21.6-9.7-21.6-21.6S10.6,3.9,22.5,3.9H77c11.9,0,21.6,9.7,21.6,21.6S88.9,47.1,77,47.1
			z M22.5,4.6C11,4.6,1.6,14,1.6,25.5c0,11.5,9.4,20.8,20.8,20.8H77c11.5,0,20.8-9.4,20.8-20.8C97.8,14,88.5,4.6,77,4.6H22.5z"/>
	</g>
	<g>
		<path class="st2" d="M25.1,40.6c-2,0-3.9-0.4-5.5-1.1c-1.6-0.7-2.9-1.8-3.8-3.3c-0.9-1.5-1.4-3.3-1.4-5.5v-0.8h3.4v0.8
			c0,2.3,0.7,4.1,2.1,5.2c1.4,1.1,3.1,1.7,5.3,1.7c2.2,0,3.9-0.5,5-1.5c1.2-1,1.7-2.2,1.7-3.8c0-1-0.3-1.9-0.8-2.5
			c-0.5-0.6-1.3-1.1-2.2-1.5s-2-0.7-3.3-1l-2.1-0.5c-1.6-0.4-3.1-1-4.4-1.6c-1.3-0.6-2.3-1.4-3-2.4c-0.7-1-1.1-2.3-1.1-3.9
			s0.4-3,1.2-4.1c0.8-1.2,1.9-2,3.4-2.7c1.4-0.6,3.1-0.9,5-0.9c1.9,0,3.6,0.3,5.1,1c1.5,0.7,2.7,1.6,3.6,2.9
			c0.9,1.3,1.3,2.9,1.3,4.8v1.7h-3.4v-1.7c0-1.4-0.3-2.5-0.9-3.3c-0.6-0.8-1.4-1.5-2.4-1.9c-1-0.4-2.2-0.6-3.5-0.6
			c-1.9,0-3.4,0.4-4.5,1.2c-1.1,0.8-1.7,2-1.7,3.5c0,1,0.2,1.8,0.7,2.4c0.5,0.6,1.2,1.1,2.1,1.5c0.9,0.4,2,0.7,3.2,1l2.1,0.5
			c1.6,0.4,3.1,0.8,4.4,1.4c1.3,0.6,2.3,1.4,3.1,2.5c0.8,1,1.2,2.4,1.2,4.1c0,1.7-0.4,3.1-1.3,4.4s-2,2.2-3.5,2.9
			C29,40.3,27.2,40.6,25.1,40.6z"/>
		<path class="st2" d="M40.5,40V11.8h17.4v3.1h-14v9.4h12.9v3.1H43.9V37h14.2V40H40.5z"/>
		<path class="st2" d="M73.5,40.6c-3.4,0-6.1-1-8.1-2.9c-2-2-3-4.8-3-8.5v-6.5c0-3.7,1-6.6,3-8.5c2-2,4.7-2.9,8.1-2.9
			c3.4,0,6.1,1,8.1,2.9c2,2,3,4.8,3,8.5v6.5c0,3.7-1,6.6-3,8.5C79.6,39.6,76.9,40.6,73.5,40.6z M73.5,37.6c2.4,0,4.3-0.7,5.7-2.2
			c1.3-1.5,2-3.5,2-6.1v-6.7c0-2.6-0.7-4.6-2-6.1c-1.3-1.5-3.2-2.2-5.7-2.2c-2.4,0-4.3,0.7-5.7,2.2c-1.3,1.5-2,3.5-2,6.1v6.7
			c0,2.6,0.7,4.7,2,6.1C69.2,36.8,71.1,37.6,73.5,37.6z"/>
	</g>
</g>
</svg>
