<?xml version="1.0" encoding="utf-8"?>
<!-- Generator: Adobe Illustrator 28.3.0, SVG Export Plug-In . SVG Version: 6.00 Build 0)  -->
<svg version="1.1" xmlns="http://www.w3.org/2000/svg" xmlns:xlink="http://www.w3.org/1999/xlink" x="0px" y="0px"
	 viewBox="0 0 250 50" style="enable-background:new 0 0 250 50;" xml:space="preserve">
<style type="text/css">
	.st0{display:none;}
	.st1{display:inline;}
	.st2{fill:#FFFFFF;}
</style>
<g id="Capa_2" class="st0">
	<rect y="-1.7" class="st1" width="254" height="55.3"/>
</g>
<g id="Capa_1">
	<g>
		<path class="st2" d="M225.1,46h-201C12.5,46,3,36.5,3,24.8S12.5,3.7,24.1,3.7h201c11.7,0,21.2,9.5,21.2,21.2S236.8,46,225.1,46z
			 M24.1,4.4c-11.2,0-20.4,9.2-20.4,20.4c0,11.2,9.2,20.4,20.4,20.4h201c11.2,0,20.4-9.2,20.4-20.4c0-11.2-9.2-20.4-20.4-20.4H24.1z
			"/>
	</g>
	<g>
		<path class="st2" d="M23.9,32c-1.1,0-2-0.2-2.8-0.6s-1.5-0.9-2-1.7c-0.5-0.8-0.7-1.7-0.7-2.9v-0.4h1.4v0.4c0,1.4,0.4,2.4,1.2,3
			s1.8,1,3,1c1.2,0,2.2-0.3,2.8-0.9s1-1.3,1-2.2c0-0.6-0.1-1.1-0.4-1.4C27,26,26.6,25.7,26,25.5c-0.5-0.2-1.1-0.4-1.8-0.6l-1.4-0.3
			c-0.8-0.2-1.5-0.5-2.2-0.8c-0.6-0.3-1.1-0.7-1.5-1.2c-0.4-0.5-0.6-1.2-0.6-2s0.2-1.5,0.6-2.1c0.4-0.6,1-1,1.7-1.4
			c0.7-0.3,1.6-0.5,2.6-0.5s1.9,0.2,2.6,0.5c0.8,0.3,1.4,0.8,1.9,1.5c0.5,0.7,0.7,1.5,0.7,2.5v1h-1.4v-1c0-0.8-0.2-1.4-0.5-1.9
			c-0.3-0.5-0.8-0.8-1.4-1.1c-0.6-0.2-1.2-0.3-1.9-0.3c-1,0-1.9,0.2-2.6,0.7c-0.7,0.5-1,1.2-1,2c0,0.6,0.1,1.1,0.4,1.4
			c0.3,0.4,0.7,0.6,1.2,0.8c0.5,0.2,1.1,0.4,1.8,0.6l1.4,0.3c0.8,0.2,1.5,0.4,2.1,0.7c0.6,0.3,1.2,0.7,1.6,1.2s0.6,1.2,0.6,2.1
			s-0.2,1.6-0.6,2.2c-0.4,0.6-1,1.1-1.8,1.5C25.8,31.8,24.9,32,23.9,32z"/>
		<path class="st2" d="M37.3,32c-1.7,0-3.1-0.5-4.1-1.5c-1-1-1.5-2.5-1.5-4.5v-3.3c0-2,0.5-3.5,1.5-4.5c1-1,2.4-1.5,4.1-1.5
			c1.7,0,3.1,0.5,4.1,1.5c1,1,1.5,2.5,1.5,4.5V26c0,2-0.5,3.5-1.5,4.5C40.4,31.5,39,32,37.3,32z M37.3,30.8c1.4,0,2.5-0.4,3.2-1.2
			s1.1-2,1.1-3.5v-3.4c0-1.5-0.4-2.7-1.1-3.5s-1.8-1.2-3.2-1.2c-1.4,0-2.4,0.4-3.2,1.2c-0.8,0.8-1.1,2-1.1,3.5V26
			c0,1.5,0.4,2.7,1.1,3.5C34.8,30.4,35.9,30.8,37.3,30.8z"/>
		<path class="st2" d="M51.4,32c-1.7,0-3.1-0.5-4.2-1.5c-1-1-1.6-2.5-1.6-4.5v-3.3c0-2,0.5-3.5,1.6-4.5s2.4-1.5,4.2-1.5
			c1.7,0,3,0.5,3.9,1.5c0.9,1,1.4,2.3,1.4,3.9v0.1h-1.4V22c0-1.2-0.3-2.2-1-3s-1.6-1.2-3-1.2c-1.4,0-2.4,0.4-3.2,1.2s-1.2,2-1.2,3.5
			V26c0,1.5,0.4,2.7,1.2,3.5s1.8,1.2,3.2,1.2c1.4,0,2.4-0.4,3-1.2c0.6-0.8,1-1.8,1-3v-0.3h1.4v0.3c0,1.7-0.5,3-1.4,3.9
			C54.4,31.5,53.1,32,51.4,32z"/>
		<path class="st2" d="M59.7,31.7V16.9h1.4v14.8H59.7z"/>
		<path class="st2" d="M63.5,31.7l4.8-14.8h2.4l4.8,14.8h-1.4l-1.3-3.9h-6.7l-1.3,3.9H63.5z M66.5,26.6h6l-2.9-8.8h-0.3L66.5,26.6z"
			/>
		<path class="st2" d="M78,31.7V16.9h1.4v13.6h7.8v1.2H78z"/>
		<path class="st2" d="M94.5,31.7V16.9h2.6l4.5,14h0.3l4.5-14h2.6v14.8h-1.3v-14h-0.3l-4.5,14h-2.4l-4.5-14h-0.3v14H94.5z"/>
		<path class="st2" d="M112.7,31.7V16.9h9v1.2H114v5.5h7v1.2h-7v5.6h7.7v1.2H112.7z"/>
		<path class="st2" d="M123.9,31.7v-1.2h2.1V18.1h-2.1v-1.2h5.6c1.9,0,3.4,0.5,4.5,1.5c1.1,1,1.6,2.5,1.6,4.6v2.7
			c0,2.1-0.5,3.6-1.6,4.6c-1.1,1-2.6,1.5-4.5,1.5H123.9z M127.3,30.5h2.2c1.6,0,2.7-0.4,3.6-1.1c0.8-0.7,1.2-2,1.2-3.6v-2.9
			c0-1.7-0.4-2.9-1.2-3.6s-2-1.1-3.6-1.1h-2.2V30.5z"/>
		<path class="st2" d="M138.7,31.7V16.9h1.4v14.8H138.7z"/>
		<path class="st2" d="M142.5,31.7l4.8-14.8h2.4l4.8,14.8h-1.4l-1.3-3.9h-6.7l-1.3,3.9H142.5z M145.5,26.6h6l-2.9-8.8h-0.3
			L145.5,26.6z"/>
		<path class="st2" d="M161.3,31.7v-1.2h2.1V18.1h-2.1v-1.2h5.6c1.9,0,3.4,0.5,4.5,1.5s1.6,2.5,1.6,4.6v2.7c0,2.1-0.5,3.6-1.6,4.6
			s-2.6,1.5-4.5,1.5H161.3z M164.8,30.5h2.2c1.6,0,2.7-0.4,3.6-1.1c0.8-0.7,1.2-2,1.2-3.6v-2.9c0-1.7-0.4-2.9-1.2-3.6
			s-2-1.1-3.6-1.1h-2.2V30.5z"/>
		<path class="st2" d="M176.1,31.7V16.9h9v1.2h-7.6v5.5h7v1.2h-7v5.6h7.7v1.2H176.1z"/>
		<path class="st2" d="M193,32c-1.1,0-2-0.2-2.8-0.6c-0.8-0.4-1.5-0.9-2-1.7c-0.5-0.8-0.7-1.7-0.7-2.9v-0.4h1.4v0.4
			c0,1.4,0.4,2.4,1.2,3s1.8,1,3,1c1.2,0,2.2-0.3,2.8-0.9c0.7-0.6,1-1.3,1-2.2c0-0.6-0.1-1.1-0.4-1.4c-0.3-0.4-0.7-0.6-1.2-0.9
			c-0.5-0.2-1.1-0.4-1.8-0.6l-1.4-0.3c-0.8-0.2-1.5-0.5-2.2-0.8c-0.6-0.3-1.1-0.7-1.5-1.2c-0.4-0.5-0.5-1.2-0.5-2s0.2-1.5,0.6-2.1
			c0.4-0.6,1-1,1.7-1.4s1.6-0.5,2.6-0.5s1.9,0.2,2.6,0.5c0.8,0.3,1.4,0.8,1.9,1.5c0.5,0.7,0.7,1.5,0.7,2.5v1h-1.4v-1
			c0-0.8-0.2-1.4-0.5-1.9c-0.3-0.5-0.8-0.8-1.4-1.1c-0.6-0.2-1.2-0.3-1.9-0.3c-1,0-1.9,0.2-2.6,0.7s-1,1.2-1,2
			c0,0.6,0.1,1.1,0.4,1.4c0.3,0.4,0.7,0.6,1.2,0.8c0.5,0.2,1.1,0.4,1.8,0.6l1.4,0.3c0.8,0.2,1.5,0.4,2.1,0.7
			c0.6,0.3,1.2,0.7,1.6,1.2c0.4,0.5,0.6,1.2,0.6,2.1s-0.2,1.6-0.6,2.2s-1,1.1-1.8,1.5C194.9,31.8,194,32,193,32z"/>
		<path class="st2" d="M201.2,31.7V16.9h1.4v14.8H201.2z"/>
		<path class="st2" d="M211.3,32c-1.1,0-2.1-0.2-3-0.7s-1.5-1.1-2-2c-0.5-0.9-0.7-2-0.7-3.3v-3.3c0-2,0.5-3.5,1.6-4.5
			s2.4-1.5,4.2-1.5c1.7,0,3,0.5,3.9,1.4s1.3,2.2,1.3,3.8V22h-1.4v-0.1c0-0.8-0.1-1.5-0.4-2.1c-0.3-0.6-0.7-1.1-1.3-1.4
			c-0.6-0.3-1.3-0.5-2.2-0.5c-1.4,0-2.4,0.4-3.2,1.2c-0.8,0.8-1.2,2-1.2,3.5V26c0,1.5,0.4,2.7,1.2,3.5c0.8,0.8,1.8,1.2,3.2,1.2
			c1.3,0,2.3-0.4,3-1.2c0.6-0.8,1-1.8,1-3.1v-0.4h-4.9v-1.2h6.2v6.8h-1.2V30h-0.3c-0.2,0.3-0.4,0.7-0.7,1c-0.3,0.3-0.7,0.5-1.2,0.7
			C212.7,31.9,212.1,32,211.3,32z"/>
		<path class="st2" d="M220.1,31.7V16.9h2.7l6.1,14h0.3v-14h1.4v14.8h-2.7l-6.1-14h-0.3v14H220.1z"/>
	</g>
</g>
</svg>
