<?xml version="1.0" encoding="utf-8"?>
<!-- Generator: Adobe Illustrator 28.3.0, SVG Export Plug-In . SVG Version: 6.00 Build 0)  -->
<svg version="1.1" xmlns="http://www.w3.org/2000/svg" xmlns:xlink="http://www.w3.org/1999/xlink" x="0px" y="0px"
	 viewBox="0 0 100 50" style="enable-background:new 0 0 100 50;" xml:space="preserve">
<style type="text/css">
	.st0{display:none;}
	.st1{display:inline;}
	.st2{fill:#FFFFFF;}
</style>
<g id="Capa_2" class="st0">
	<rect x="-0.1" y="0" class="st1" width="100.3" height="50.4"/>
</g>
<g id="Capa_1">
	<path class="st2" d="M77.2,46.5H22.8C11.1,46.5,1.6,37,1.6,25.2v0C1.6,13.5,11.1,4,22.8,4h54.4c11.7,0,21.2,9.5,21.2,21.2v0
		C98.4,37,88.9,46.5,77.2,46.5z"/>
	<g>
		<path d="M60.3,42.1l-2.4-2.4L68,29.5l1.9-1.4l-0.2-0.6l-2.4,0.2H31.1v-3.5h36.3l2.4,0.2l0.2-0.6L68,22.5L57.8,12.2l2.4-2.4
			l14.9,14.9v2.5L60.3,42.1z"/>
	</g>
</g>
</svg>
