<?xml version="1.0" encoding="utf-8"?>
<!-- Generator: Adobe Illustrator 28.3.0, SVG Export Plug-In . SVG Version: 6.00 Build 0)  -->
<svg version="1.1" xmlns="http://www.w3.org/2000/svg" xmlns:xlink="http://www.w3.org/1999/xlink" x="0px" y="0px"
	 viewBox="0 0 250 50" style="enable-background:new 0 0 250 50;" xml:space="preserve">
<style type="text/css">
	.st0{display:none;}
	.st1{display:inline;}
	.st2{fill:#FFFFFF;}
</style>
<g id="Capa_2" class="st0">
	<rect y="-1.7" class="st1" width="254" height="55.3"/>
</g>
<g id="Capa_1">
	<g>
		<path class="st2" d="M225.1,46h-201C12.5,46,3,36.5,3,24.8S12.5,3.7,24.1,3.7h201c11.7,0,21.2,9.5,21.2,21.2S236.8,46,225.1,46z
			 M24.1,4.4c-11.2,0-20.4,9.2-20.4,20.4c0,11.2,9.2,20.4,20.4,20.4h201c11.2,0,20.4-9.2,20.4-20.4c0-11.2-9.2-20.4-20.4-20.4H24.1z
			"/>
	</g>
	<g>
		<path class="st2" d="M27.3,36.2l-7.2-22.4h2.1L28.9,35h0.4L36,13.8h2.1l-7.2,22.4H27.3z"/>
		<path class="st2" d="M41.8,36.2V13.8h2v22.4H41.8z"/>
		<path class="st2" d="M48.1,36.2v-1.9h3.2V15.6h-3.2v-1.9h8.5c2.9,0,5.2,0.7,6.8,2.2c1.6,1.5,2.4,3.8,2.4,6.9v4.1
			c0,3.1-0.8,5.4-2.4,6.9c-1.6,1.5-3.9,2.2-6.8,2.2H48.1z M53.4,34.4h3.3c2.3,0,4.1-0.6,5.4-1.7c1.2-1.1,1.9-3,1.9-5.5v-4.3
			c0-2.5-0.6-4.4-1.9-5.5c-1.2-1.1-3-1.7-5.4-1.7h-3.3V34.4z"/>
		<path class="st2" d="M70.5,36.2V13.8h13.5v1.9H72.6V24h10.6v1.9H72.6v8.5h11.6v1.9H70.5z"/>
		<path class="st2" d="M96.6,36.7c-2.6,0-4.7-0.8-6.3-2.3c-1.6-1.5-2.3-3.8-2.3-6.8v-5.1c0-3,0.8-5.3,2.3-6.8
			c1.6-1.5,3.7-2.3,6.3-2.3s4.7,0.8,6.3,2.3c1.6,1.5,2.3,3.8,2.3,6.8v5.1c0,3-0.8,5.3-2.3,6.8C101.3,35.9,99.2,36.7,96.6,36.7z
			 M96.6,34.8c2.1,0,3.7-0.6,4.9-1.9c1.1-1.3,1.7-3,1.7-5.3v-5.2c0-2.3-0.6-4.1-1.7-5.3c-1.1-1.3-2.8-1.9-4.9-1.9
			c-2.1,0-3.7,0.6-4.8,1.9s-1.7,3-1.7,5.3v5.2c0,2.3,0.6,4.1,1.7,5.3S94.5,34.8,96.6,34.8z"/>
		<path class="st2" d="M118.3,36.2V13.8h13.5v1.9h-11.5V24h10.6v1.9h-10.6v8.5h11.6v1.9H118.3z"/>
		<path class="st2" d="M135.2,36.2v-1.9h3.2V15.6h-3.2v-1.9h8.5c2.9,0,5.2,0.7,6.8,2.2c1.6,1.5,2.5,3.8,2.5,6.9v4.1
			c0,3.1-0.8,5.4-2.5,6.9c-1.6,1.5-3.9,2.2-6.8,2.2H135.2z M140.5,34.4h3.3c2.3,0,4.1-0.6,5.4-1.7c1.2-1.1,1.9-3,1.9-5.5v-4.3
			c0-2.5-0.6-4.4-1.9-5.5c-1.2-1.1-3-1.7-5.4-1.7h-3.3V34.4z"/>
		<path class="st2" d="M157.6,36.2V13.8h2v22.4H157.6z"/>
		<path class="st2" d="M170.8,36.2V15.6h-7.5v-1.9h17v1.9h-7.5v20.6H170.8z"/>
		<path class="st2" d="M184,36.2V13.8h2v22.4H184z"/>
		<path class="st2" d="M199.5,36.7c-2.6,0-4.7-0.8-6.3-2.3s-2.3-3.8-2.3-6.8v-5.1c0-3,0.8-5.3,2.3-6.8s3.7-2.3,6.3-2.3
			c2.6,0,4.7,0.8,6.3,2.3s2.3,3.8,2.3,6.8v5.1c0,3-0.8,5.3-2.3,6.8S202.1,36.7,199.5,36.7z M199.5,34.8c2.1,0,3.7-0.6,4.9-1.9
			s1.7-3,1.7-5.3v-5.2c0-2.3-0.6-4.1-1.7-5.3s-2.8-1.9-4.9-1.9c-2.1,0-3.7,0.6-4.8,1.9c-1.2,1.3-1.7,3-1.7,5.3v5.2
			c0,2.3,0.6,4.1,1.7,5.3C195.8,34.2,197.4,34.8,199.5,34.8z"/>
		<path class="st2" d="M212.9,36.2V13.8h4.1l9.2,21.2h0.4V13.8h2v22.4h-4.1L215.3,15h-0.4v21.2H212.9z"/>
	</g>
</g>
</svg>
