<?xml version="1.0" encoding="utf-8"?>
<!-- Generator: Adobe Illustrator 28.3.0, SVG Export Plug-In . SVG Version: 6.00 Build 0)  -->
<svg version="1.1" id="Capa_1" xmlns="http://www.w3.org/2000/svg" xmlns:xlink="http://www.w3.org/1999/xlink" x="0px" y="0px"
	 viewBox="0 0 250 50" style="enable-background:new 0 0 250 50;" xml:space="preserve">
<style type="text/css">
	.st0{fill:#5B5B5B;}
</style>
<g>
	<path class="st0" d="M225.1,46h-201C12.5,46,3,36.5,3,24.8S12.5,3.7,24.1,3.7h201c11.7,0,21.2,9.5,21.2,21.2S236.8,46,225.1,46z
		 M24.1,4.4c-11.2,0-20.4,9.2-20.4,20.4c0,11.2,9.2,20.4,20.4,20.4h201c11.2,0,20.4-9.2,20.4-20.4c0-11.2-9.2-20.4-20.4-20.4H24.1z"
		/>
</g>
<g>
	<path class="st0" d="M36.1,38.5v-2.2H40V13.7h-3.9v-2.2h13.4c1.5,0,2.9,0.3,4.1,0.9c1.2,0.6,2.2,1.4,2.8,2.4c0.7,1,1,2.2,1,3.5v0.3
		c0,1.3-0.2,2.3-0.7,3.1c-0.5,0.8-1.1,1.5-1.8,1.9c-0.7,0.5-1.4,0.8-2,1V25c0.7,0.2,1.4,0.5,2.1,0.9s1.3,1.1,1.8,2
		c0.5,0.8,0.7,1.9,0.7,3.1v0.4c0,1.5-0.4,2.7-1.1,3.8s-1.7,1.9-2.9,2.4c-1.2,0.6-2.6,0.8-4.2,0.8H36.1z M42.5,23.7h6.9
		c1.8,0,3.2-0.4,4.2-1.3c1-0.9,1.5-2.1,1.5-3.5v-0.4c0-1.4-0.5-2.6-1.5-3.5c-1-0.9-2.4-1.3-4.2-1.3h-6.9V23.7z M42.5,36.3h6.7
		c1.9,0,3.4-0.5,4.4-1.4c1-0.9,1.5-2.1,1.5-3.6V31c0-1.5-0.5-2.7-1.5-3.6S51.1,26,49.2,26h-6.7V36.3z"/>
	<path class="st0" d="M63.1,38.5V11.4h10.6c1.7,0,3.2,0.3,4.4,0.9c1.3,0.6,2.3,1.4,3,2.5c0.7,1.1,1.1,2.4,1.1,3.9V19
		c0,1.8-0.4,3.3-1.3,4.3c-0.9,1-1.9,1.7-3.1,2.1v0.5c0.9,0,1.7,0.3,2.3,0.9c0.6,0.5,0.9,1.4,0.9,2.6v9.2h-2.5v-8.9
		c0-0.8-0.2-1.5-0.7-1.9s-1.1-0.7-2-0.7H65.6v11.5H63.1z M65.6,24.8h7.9c2,0,3.6-0.5,4.7-1.4c1.1-0.9,1.6-2.3,1.6-4v-0.2
		c0-1.8-0.5-3.1-1.6-4c-1.1-0.9-2.6-1.4-4.7-1.4h-7.9V24.8z"/>
	<path class="st0" d="M85.2,38.5l8.9-27.1h4.4l8.9,27.1h-2.6l-2.3-7.2H90.2l-2.3,7.2H85.2z M90.9,29.1h10.9l-5.2-16.2h-0.5
		L90.9,29.1z"/>
	<path class="st0" d="M111.8,38.5V11.4h4.9L127.7,37h0.5V11.4h2.5v27.1h-4.9l-11.1-25.6h-0.5v25.6H111.8z"/>
	<path class="st0" d="M135.9,38.5v-2.2h3.9V13.7h-3.9v-2.2h10.3c3.5,0,6.3,0.9,8.3,2.7c2,1.8,3,4.6,3,8.4v5c0,3.8-1,6.6-3,8.4
		s-4.7,2.7-8.3,2.7H135.9z M142.2,36.3h3.9c2.8,0,5-0.7,6.5-2c1.5-1.4,2.2-3.6,2.2-6.6v-5.2c0-3.1-0.7-5.3-2.2-6.6
		c-1.5-1.4-3.7-2-6.5-2h-3.9V36.3z"/>
	<path class="st0" d="M162.9,38.5V11.4h2.5v27.1H162.9z"/>
	<path class="st0" d="M172,38.5V11.4h4.9L188,37h0.5V11.4h2.5v27.1H186L175,12.9h-0.5v25.6H172z"/>
	<path class="st0" d="M207,39c-2.1,0-3.9-0.4-5.4-1.3c-1.5-0.8-2.7-2.1-3.6-3.7c-0.9-1.6-1.3-3.7-1.3-6v-6.1c0-3.6,0.9-6.3,2.8-8.2
		c1.9-1.9,4.4-2.8,7.6-2.8c3.1,0,5.5,0.9,7.1,2.6c1.6,1.8,2.4,4.1,2.4,7v0.2h-2.5v-0.3c0-1.4-0.2-2.7-0.7-3.8
		c-0.5-1.1-1.3-2-2.3-2.6c-1-0.6-2.4-0.9-4-0.9c-2.5,0-4.5,0.8-5.9,2.3c-1.4,1.5-2.1,3.7-2.1,6.4v6.3c0,2.8,0.7,4.9,2.1,6.4
		c1.4,1.5,3.4,2.3,5.9,2.3c2.4,0,4.3-0.7,5.4-2.1c1.2-1.4,1.7-3.3,1.7-5.7v-0.8h-8.9V26h11.3v12.5h-2.2v-3.1H214
		c-0.3,0.6-0.7,1.2-1.3,1.8c-0.6,0.6-1.3,1-2.2,1.3C209.6,38.9,208.4,39,207,39z"/>
</g>
</svg>
