<?xml version="1.0" encoding="utf-8"?>
<!-- Generator: Adobe Illustrator 28.3.0, SVG Export Plug-In . SVG Version: 6.00 Build 0)  -->
<svg version="1.1" xmlns="http://www.w3.org/2000/svg" xmlns:xlink="http://www.w3.org/1999/xlink" x="0px" y="0px"
	 viewBox="0 0 250 50" style="enable-background:new 0 0 250 50;" xml:space="preserve">
<style type="text/css">
	.st0{display:none;}
	.st1{display:inline;}
	.st2{fill:#FFFFFF;}
</style>
<g id="Capa_2" class="st0">
	<rect y="-1.7" class="st1" width="254" height="55.3"/>
</g>
<g id="Capa_1">
	<g>
		<path class="st2" d="M225.1,46h-201C12.5,46,3,36.5,3,24.8S12.5,3.7,24.1,3.7h201c11.7,0,21.2,9.5,21.2,21.2S236.8,46,225.1,46z
			 M24.1,4.4c-11.2,0-20.4,9.2-20.4,20.4c0,11.2,9.2,20.4,20.4,20.4h201c11.2,0,20.4-9.2,20.4-20.4c0-11.2-9.2-20.4-20.4-20.4H24.1z
			"/>
	</g>
	<g>
		<path class="st2" d="M25.4,38.1l-4.6-26.2h2.4l4.2,24.7h0.4l5.4-24.7h4.4l5.4,24.7h0.4l4.2-24.7h2.4l-4.6,26.2h-4.4l-5.4-24.7
			h-0.4l-5.4,24.7H25.4z"/>
		<path class="st2" d="M54.9,38.1V11.9h15.8v2.2H57.3v9.8h12.4V26H57.3v9.9h13.6v2.2H54.9z"/>
		<path class="st2" d="M74.7,38.1v-2.2h3.7V14.1h-3.7v-2.2h13c1.5,0,2.8,0.3,4,0.8c1.2,0.5,2.1,1.3,2.7,2.3c0.7,1,1,2.1,1,3.4v0.3
			c0,1.2-0.2,2.2-0.7,3c-0.5,0.8-1,1.4-1.7,1.9s-1.3,0.8-2,1v0.4c0.6,0.1,1.3,0.5,2,0.9c0.7,0.5,1.3,1.1,1.7,1.9
			c0.5,0.8,0.7,1.8,0.7,3v0.4c0,1.4-0.3,2.6-1,3.7c-0.7,1-1.6,1.8-2.8,2.3c-1.2,0.5-2.5,0.8-4,0.8H74.7z M80.8,23.8h6.7
			c1.7,0,3.1-0.4,4.1-1.3c1-0.9,1.5-2,1.5-3.4v-0.4c0-1.4-0.5-2.5-1.5-3.4c-1-0.9-2.3-1.3-4.1-1.3h-6.7V23.8z M80.8,35.9h6.5
			c1.9,0,3.3-0.4,4.2-1.3c1-0.9,1.4-2,1.4-3.5v-0.3c0-1.5-0.5-2.6-1.4-3.5c-1-0.9-2.4-1.3-4.2-1.3h-6.5V35.9z"/>
		<path class="st2" d="M108.9,38.1v-2.2h3.7V14.1h-3.7v-2.2h9.9c3.4,0,6.1,0.9,8,2.6c1.9,1.7,2.9,4.4,2.9,8.1v4.8
			c0,3.7-1,6.4-2.9,8.1c-1.9,1.7-4.6,2.6-8,2.6H108.9z M115.1,35.9h3.8c2.7,0,4.8-0.7,6.3-2c1.4-1.3,2.2-3.4,2.2-6.4v-5
			c0-3-0.7-5.1-2.2-6.4c-1.4-1.3-3.5-2-6.3-2h-3.8V35.9z"/>
		<path class="st2" d="M135.1,38.1V11.9h15.8v2.2h-13.4v9.8h12.4V26h-12.4v9.9h13.6v2.2H135.1z"/>
		<path class="st2" d="M164.8,38.6c-1.9,0-3.5-0.3-5-1c-1.5-0.7-2.6-1.7-3.5-3c-0.8-1.4-1.3-3.1-1.3-5.2v-0.7h2.4v0.7
			c0,2.4,0.7,4.2,2.1,5.4s3.1,1.7,5.3,1.7c2.2,0,3.8-0.5,5-1.5c1.2-1,1.8-2.3,1.8-3.9c0-1-0.3-1.9-0.8-2.5c-0.5-0.6-1.2-1.1-2.1-1.5
			c-0.9-0.4-2-0.7-3.2-1l-2.4-0.6c-1.4-0.4-2.7-0.8-3.8-1.4c-1.1-0.6-2-1.3-2.7-2.2c-0.6-0.9-1-2.1-1-3.5s0.4-2.7,1.1-3.7
			c0.7-1,1.8-1.8,3-2.4c1.3-0.6,2.8-0.8,4.5-0.8s3.3,0.3,4.7,0.9s2.5,1.5,3.3,2.6s1.2,2.6,1.2,4.4V21h-2.4v-1.8
			c0-1.4-0.3-2.5-0.9-3.3c-0.6-0.8-1.4-1.5-2.4-1.9c-1-0.4-2.2-0.6-3.4-0.6c-1.8,0-3.3,0.4-4.5,1.3c-1.2,0.8-1.8,2-1.8,3.6
			c0,1,0.2,1.9,0.7,2.5c0.5,0.6,1.2,1.1,2.1,1.5c0.9,0.4,1.9,0.7,3.1,1l2.4,0.6c1.4,0.3,2.6,0.8,3.8,1.3c1.1,0.5,2.1,1.3,2.8,2.2
			c0.7,0.9,1,2.2,1,3.7s-0.4,2.8-1.1,4c-0.8,1.1-1.8,2-3.2,2.6C168.3,38.3,166.7,38.6,164.8,38.6z"/>
		<path class="st2" d="M179.3,38.1V11.9h2.4v26.2H179.3z"/>
		<path class="st2" d="M197.2,38.6c-2,0-3.7-0.4-5.2-1.2c-1.5-0.8-2.7-2-3.5-3.6c-0.8-1.6-1.2-3.5-1.2-5.8V22c0-3.5,0.9-6.1,2.7-7.9
			c1.8-1.8,4.3-2.7,7.3-2.7c3,0,5.3,0.8,6.9,2.5c1.6,1.7,2.3,3.9,2.3,6.8v0.2h-2.4v-0.3c0-1.4-0.2-2.6-0.7-3.6
			c-0.5-1.1-1.2-1.9-2.2-2.5s-2.3-0.9-3.9-0.9c-2.4,0-4.3,0.7-5.7,2.2s-2,3.5-2,6.2V28c0,2.7,0.7,4.7,2,6.2c1.4,1.5,3.2,2.2,5.7,2.2
			c2.4,0,4.1-0.7,5.2-2.1c1.1-1.4,1.7-3.2,1.7-5.5v-0.7h-8.6V26h10.9v12.1h-2.2v-3H204c-0.3,0.6-0.7,1.2-1.3,1.7
			c-0.5,0.5-1.3,1-2.1,1.3C199.7,38.4,198.6,38.6,197.2,38.6z"/>
		<path class="st2" d="M212.7,38.1V11.9h4.7l10.7,24.7h0.4V11.9h2.4v26.2h-4.7l-10.7-24.8h-0.4v24.8H212.7z"/>
	</g>
</g>
</svg>
