<?xml version="1.0" encoding="utf-8"?>
<!-- Generator: Adobe Illustrator 28.3.0, SVG Export Plug-In . SVG Version: 6.00 Build 0)  -->
<svg version="1.1" id="Capa_1" xmlns="http://www.w3.org/2000/svg" xmlns:xlink="http://www.w3.org/1999/xlink" x="0px" y="0px"
	 viewBox="0 0 50 50" style="enable-background:new 0 0 50 50;" xml:space="preserve">
<style type="text/css">
	.st0{fill:#FFFFFF;}
</style>
<circle class="st0" cx="25" cy="25.6" r="22.4"/>
<g>
	<path d="M16.4,12.4c-0.5,0-0.9,0.2-1.3,0.5L13,15.1c-0.7,0.7-0.7,1.8,0,2.5l7.4,7.4L13,32.4c-0.7,0.7-0.7,1.8,0,2.5l2.2,2.2
		c0.7,0.7,1.8,0.7,2.5,0l7.4-7.4l7.4,7.4c0.7,0.7,1.8,0.7,2.5,0l2.2-2.2c0.7-0.7,0.7-1.8,0-2.5L29.7,25l7.4-7.4
		c0.7-0.7,0.7-1.8,0-2.5L34.9,13c-0.7-0.7-1.8-0.7-2.5,0L25,20.3L17.6,13C17.3,12.6,16.8,12.4,16.4,12.4z"/>
</g>
</svg>
