<?xml version="1.0" encoding="utf-8"?>
<!-- Generator: Adobe Illustrator 28.3.0, SVG Export Plug-In . SVG Version: 6.00 Build 0)  -->
<svg version="1.1" xmlns="http://www.w3.org/2000/svg" xmlns:xlink="http://www.w3.org/1999/xlink" x="0px" y="0px"
	 viewBox="0 0 100 50" style="enable-background:new 0 0 100 50;" xml:space="preserve">
<style type="text/css">
	.st0{display:none;}
	.st1{display:inline;}
	.st2{fill:#FFFFFF;}
</style>
<g id="Capa_2" class="st0">
	<rect x="-0.1" y="0" class="st1" width="100.3" height="50.4"/>
</g>
<g id="Capa_1">
	<g>
		<path class="st2" d="M77,47.1H22.5c-11.9,0-21.6-9.7-21.6-21.6S10.6,3.9,22.5,3.9H77c11.9,0,21.6,9.7,21.6,21.6S88.9,47.1,77,47.1
			z M22.5,4.6C11,4.6,1.6,14,1.6,25.5c0,11.5,9.4,20.8,20.8,20.8H77c11.5,0,20.8-9.4,20.8-20.8C97.8,14,88.5,4.6,77,4.6H22.5z"/>
	</g>
	<g>
		<path class="st2" d="M20.7,35.8c-1.5,0-2.8-0.3-3.9-0.8c-1.1-0.5-2-1.3-2.6-2.4c-0.6-1.1-1-2.4-1-4.1V14.5h1.9v14.1
			c0,1.9,0.5,3.3,1.5,4.2c1,0.9,2.4,1.4,4.1,1.4s3.1-0.5,4.1-1.4c1-0.9,1.5-2.3,1.5-4.2V14.5h1.9v14.1c0,1.6-0.3,3-0.9,4.1
			c-0.6,1.1-1.5,1.9-2.6,2.4C23.5,35.6,22.2,35.8,20.7,35.8z"/>
		<path class="st2" d="M31.7,35.4l7-10.5l-6.9-10.4h2.3l5.8,9h0.4l5.8-9h2.3l-6.9,10.4l7,10.5h-2.3l-5.9-9.2h-0.4L34,35.4H31.7z"/>
		<path class="st2" d="M49.7,41.4l8.8-26.9h1.8l-8.8,26.9H49.7z"/>
		<path class="st2" d="M70.3,35.8c-1.5,0-2.8-0.3-3.9-0.8c-1.1-0.5-2-1.3-2.6-2.4c-0.6-1.1-1-2.4-1-4.1V14.5h1.9v14.1
			c0,1.9,0.5,3.3,1.5,4.2s2.4,1.4,4.1,1.4s3.1-0.5,4.1-1.4s1.5-2.3,1.5-4.2V14.5h1.9v14.1c0,1.6-0.3,3-0.9,4.1
			c-0.6,1.1-1.5,1.9-2.6,2.4C73.1,35.6,71.8,35.8,70.3,35.8z"/>
		<path class="st2" d="M82.8,35.4V14.5h1.9v20.9H82.8z"/>
	</g>
</g>
</svg>
