<?xml version="1.0" encoding="utf-8"?>
<!-- Generator: Adobe Illustrator 28.3.0, SVG Export Plug-In . SVG Version: 6.00 Build 0)  -->
<svg version="1.1" id="Capa_1" xmlns="http://www.w3.org/2000/svg" xmlns:xlink="http://www.w3.org/1999/xlink" x="0px" y="0px"
	 viewBox="0 0 50 50" style="enable-background:new 0 0 50 50;" xml:space="preserve">
<style type="text/css">
	.st0{fill:#FFFFFF;}
</style>
<circle class="st0" cx="25" cy="25.6" r="22.4"/>
<path d="M34.3,18.9c-0.3-0.7-0.2-1.5-0.1-2.2c0.1-0.4-0.3-0.9-0.7-0.8c-3.2,0.3-5.8,2.8-4.5,6.1c0.2,0.7-0.5,1.2-1.1,0.8
	c-1.2-0.8-2.3-1.2-3.6-1.6c-1.2-0.4-2.4-0.8-3.2-1.8c-0.6-0.7-0.8-1.7-1.3-2.5c-0.8-1.3-2.2-1.4-2.2-1.4l-0.7-1
	c-0.3-0.6-1.2-0.4-1.3,0.2c-0.1,0.4-0.1,0.7-0.1,0.7c0,0-0.1,0.1-0.1,0.1c-0.3,0.1-0.7,0.3-1,0.4c-0.3,0.2-0.6,0.4-0.8,0.6
	c-0.6,0.4-1,1-1.4,1.6c-0.1,0.2-0.2,0.4-0.3,0.5c-0.2,0.5-0.4,1-0.5,1.5c-0.2,1-0.2,2.3,0.6,3c0.6,0.5,1.4,0.6,2.2,0.6
	c0.2,0,1.8,0,1.8-0.1c0,0.9-0.8,2.2-1.8,1.9c-0.5-0.1-1-0.2-1.6-0.3c-0.5,0-1.2,0.1-1.5,0.4s-0.4,1,0.1,1.2c0.2,0.1,0.4,0.1,0.6,0.1
	h0.9c0.8,0,1.5,0.9,2.1,1.3c0.9,0.7,1.8,1.2,2.9,0.7c0.5-0.2,0.9-0.5,1.3-1c0.3-0.4,0.7-0.8,1.2-1c0.1-0.1,0.7,0,0.7,0
	c0,0.1-2.5,1.7-2.5,3.8c0,2.1,1.6,4,1.6,4c-0.8,0-1.6,0.4-2,1.1c-0.1,0.3-0.1,1,0.3,1h11.8c0.9,0,1.7-0.1,2.5-0.4
	c1-0.3,1.9-0.7,2.7-1.4c3.7-2.7,5.3-8.2,2.6-12.2C36.7,21.7,34.9,20.7,34.3,18.9L34.3,18.9z M14,21.1c-0.5,0-1-0.4-1-1
	c0-0.5,0.4-1,1-1c0.5,0,1,0.4,1,1C14.9,20.6,14.5,21.1,14,21.1z"/>
</svg>
